<svg width="36" height="36" viewBox="0 0 36 36" fill="none" xmlns="http://www.w3.org/2000/svg">
<path d="M30.81 7.845L28.725 5.325C28.32 4.815 27.705 4.5 27 4.5H9C8.295 4.5 7.68 4.815 7.26 5.325L5.19 7.845C4.755 8.355 4.5 9.03 4.5 9.75V28.5C4.5 30.15 5.85 31.5 7.5 31.5H28.5C30.15 31.5 31.5 30.15 31.5 28.5V9.75C31.5 9.03 31.245 8.355 30.81 7.845ZM17.475 25.725L9.75 18H15V15H21V18H26.25L18.525 25.725C18.24 26.01 17.76 26.01 17.475 25.725ZM7.68 7.5L8.895 6H26.895L28.305 7.5H7.68Z" fill="#202020"/>
</svg>
