<svg width="56" height="56" viewBox="0 0 56 56" fill="none" xmlns="http://www.w3.org/2000/svg">
<path d="M42.0001 25.6665V30.3332H23.3334L31.5001 38.4998L28.1868 41.8132L14.3734 27.9998L28.1868 14.1865L31.5001 17.4998L23.3334 25.6665H42.0001ZM4.66675 27.9998C4.66675 21.8115 7.12507 15.8765 11.5009 11.5007C15.8768 7.12483 21.8117 4.6665 28.0001 4.6665C31.0643 4.6665 34.0984 5.27004 36.9294 6.44265C39.7603 7.61526 42.3325 9.33398 44.4992 11.5007C46.6659 13.6674 48.3847 16.2396 49.5573 19.0706C50.7299 21.9015 51.3334 24.9357 51.3334 27.9998C51.3334 34.1882 48.8751 40.1231 44.4992 44.499C40.1234 48.8748 34.1885 51.3332 28.0001 51.3332C24.9359 51.3332 21.9017 50.7296 19.0708 49.557C16.2399 48.3844 13.6676 46.6657 11.5009 44.499C7.12507 40.1231 4.66675 34.1882 4.66675 27.9998V27.9998ZM9.33342 27.9998C9.33342 32.9505 11.3001 37.6985 14.8008 41.1992C18.3014 44.6998 23.0494 46.6665 28.0001 46.6665C32.9508 46.6665 37.6987 44.6998 41.1994 41.1992C44.7001 37.6985 46.6668 32.9505 46.6668 27.9998C46.6668 23.0491 44.7001 18.3012 41.1994 14.8005C37.6987 11.2998 32.9508 9.33317 28.0001 9.33317C23.0494 9.33317 18.3014 11.2998 14.8008 14.8005C11.3001 18.3012 9.33342 23.0491 9.33342 27.9998V27.9998Z" fill="#03CCF8"/>
</svg>
