<svg width="24" height="35" viewBox="0 0 24 35" fill="none" xmlns="http://www.w3.org/2000/svg">
<path d="M11.6657 0C6.07536 11.6667 0 16.8894 0 23.3341C0 29.7785 5.22131 35 11.6657 35C18.1165 35 23.3333 29.7785 23.3333 23.3341C23.3333 16.8894 17.4224 11.6667 11.6657 0Z" fill="#35C6F4"/>
<path d="M11.6111 15.1423C7.17911 15.1423 3.58203 18.7361 3.58203 23.1699C3.58203 27.6072 7.17911 31.2045 11.6111 31.2045C16.0495 31.2045 19.6462 27.6072 19.6462 23.1699C19.6462 18.7361 16.0495 15.1423 11.6111 15.1423Z" fill="#AFE2F9"/>
<path d="M13.7669 20.428C12.556 20.428 11.5668 21.8933 11.5668 21.8933C11.5668 21.8933 10.5862 20.428 9.36837 20.428C8.1557 20.428 7.16406 21.1592 7.16406 22.6235C7.16406 24.8216 11.5668 27.7506 11.5668 27.7506C11.5668 27.7506 15.9736 24.8216 15.9736 22.6235C15.9736 21.1592 14.9802 20.428 13.7669 20.428Z" fill="#090C9B"/>
</svg>
