<svg width="46" height="46" viewBox="0 0 46 46" fill="none" xmlns="http://www.w3.org/2000/svg">
<path d="M0.85 23C0.85 35.2331 10.7669 45.15 23 45.15C35.2331 45.15 45.15 35.2331 45.15 23C45.15 10.7669 35.2331 0.85 23 0.85C10.7669 0.85 0.85 10.7669 0.85 23Z" fill="white" stroke="#202020" stroke-width="0.3"/>
<path d="M32.1 26.25C32.1 26.25 34.7 29.071 34.7 30.8C34.7 31.4896 34.4261 32.1509 33.9385 32.6385C33.4509 33.1261 32.7896 33.4 32.1 33.4C31.4104 33.4 30.7491 33.1261 30.2615 32.6385C29.7739 32.1509 29.5 31.4896 29.5 30.8C29.5 29.071 32.1 26.25 32.1 26.25ZM13.9 30.8V19.1C13.2104 19.1 12.5491 18.8261 12.0615 18.3385C11.5739 17.8509 11.3 17.1896 11.3 16.5C11.3 15.8104 11.5739 15.1491 12.0615 14.6615C12.5491 14.1739 13.2104 13.9 13.9 13.9V12.6C13.9 11.9104 14.1739 11.2491 14.6615 10.7615C15.1491 10.2739 15.8104 10 16.5 10H19.1C19.7896 10 20.4509 10.2739 20.9385 10.7615C21.4261 11.2491 21.7 11.9104 21.7 12.6V13.9H32.1C32.7896 13.9 33.4509 14.1739 33.9385 14.6615C34.4261 15.1491 34.7 15.8104 34.7 16.5V21.7C35.0448 21.7 35.3754 21.837 35.6192 22.0808C35.863 22.3246 36 22.6552 36 23C36 23.3448 35.863 23.6754 35.6192 23.9192C35.3754 24.163 35.0448 24.3 34.7 24.3H29.5C29.1552 24.3 28.8246 24.163 28.5808 23.9192C28.337 23.6754 28.2 23.3448 28.2 23C28.2 22.6552 28.337 22.3246 28.5808 22.0808C28.8246 21.837 29.1552 21.7 29.5 21.7V19.1H21.7V30.8H23C23.6896 30.8 24.3509 31.0739 24.8385 31.5615C25.3261 32.0491 25.6 32.7104 25.6 33.4V36H10V33.4C10 32.7104 10.2739 32.0491 10.7615 31.5615C11.2491 31.0739 11.9104 30.8 12.6 30.8H13.9Z" fill="#BDBDBD"/>
</svg>
