<svg width="28" height="27" viewBox="0 0 28 27" style="border:1px solid black" fill="none" xmlns="http://www.w3.org/2000/svg">
<path d="M5.90143 0.99C6.36355 0.582367 6.95668 0.354237 7.57286 0.347143H10.1443C10.8263 0.347143 11.4803 0.61806 11.9626 1.1003C12.4448 1.58253 12.7157 2.23659 12.7157 2.91857V4.20429H23.0014C23.6834 4.20429 24.3375 4.4752 24.8197 4.95744C25.3019 5.43968 25.5729 6.09373 25.5729 6.77571V11.9186C25.9138 11.9186 26.2409 12.054 26.482 12.2951C26.7231 12.5363 26.8586 12.8633 26.8586 13.2043C26.8586 13.5453 26.7231 13.8723 26.482 14.1134C26.2409 14.3545 25.9138 14.49 25.5729 14.49H20.43C20.089 14.49 19.762 14.3545 19.5209 14.1134C19.2797 13.8723 19.1443 13.5453 19.1443 13.2043C19.1443 12.8633 19.2797 12.5363 19.5209 12.2951C19.762 12.054 20.089 11.9186 20.43 11.9186V9.34714H14.2586L5.90143 0.99ZM25.3671 27L27 25.3671L12.7157 11.07L1.64571 0L0 1.63286L3.26571 4.89857C2.8905 5.24982 2.62916 5.70544 2.5154 6.20666C2.40164 6.70787 2.44069 7.23168 2.62751 7.71048C2.81433 8.18929 3.14034 8.60113 3.56348 8.89286C3.98663 9.18459 4.48748 9.34282 5.00143 9.34714V20.9186H3.71571C3.03373 20.9186 2.37968 21.1895 1.89744 21.6717C1.4152 22.154 1.14429 22.808 1.14429 23.49V26.0614H16.5729V23.49C16.5729 22.808 16.3019 22.154 15.8197 21.6717C15.3375 21.1895 14.6834 20.9186 14.0014 20.9186H12.7157V14.3486L25.3671 27Z" fill="#FA0707" />
</svg>
