<svg width="26" height="26" viewBox="0 0 26 26" fill="none" xmlns="http://www.w3.org/2000/svg">
<path d="M3.9 20.8V9.1C3.21044 9.1 2.54912 8.82607 2.06152 8.33848C1.57393 7.85088 1.3 7.18956 1.3 6.5C1.3 5.81044 1.57393 5.14912 2.06152 4.66152C2.54912 4.17393 3.21044 3.9 3.9 3.9V2.6C3.9 1.91044 4.17393 1.24912 4.66152 0.761522C5.14912 0.273928 5.81044 0 6.5 0H9.1C9.78956 0 10.4509 0.273928 10.9385 0.761522C11.4261 1.24912 11.7 1.91044 11.7 2.6V3.9H22.1C22.7896 3.9 23.4509 4.17393 23.9385 4.66152C24.4261 5.14912 24.7 5.81044 24.7 6.5V11.7C25.0448 11.7 25.3754 11.837 25.6192 12.0808C25.863 12.3246 26 12.6552 26 13C26 13.3448 25.863 13.6754 25.6192 13.9192C25.3754 14.163 25.0448 14.3 24.7 14.3H19.5C19.1552 14.3 18.8246 14.163 18.5808 13.9192C18.337 13.6754 18.2 13.3448 18.2 13C18.2 12.6552 18.337 12.3246 18.5808 12.0808C18.8246 11.837 19.1552 11.7 19.5 11.7V9.1H11.7V20.8H13C13.6896 20.8 14.3509 21.0739 14.8385 21.5615C15.3261 22.0491 15.6 22.7104 15.6 23.4V26H0V23.4C0 22.7104 0.273928 22.0491 0.761522 21.5615C1.24912 21.0739 1.91044 20.8 2.6 20.8H3.9Z" fill="#FFAD34"/>
</svg>
