<svg width="28" height="27" viewBox="0 0 28 27" fill="none" xmlns="http://www.w3.org/2000/svg">
<path d="M20.43 9.09714H14.3621L6.27732 1.01234C6.65675 0.748545 7.10821 0.602791 7.57433 0.597143H10.1443C10.76 0.597143 11.3504 0.841721 11.7858 1.27707C12.2211 1.71243 12.4657 2.30289 12.4657 2.91857V4.20429V4.45429H12.7157H23.0014C23.6171 4.45429 24.2076 4.69886 24.6429 5.13422C25.0783 5.56957 25.3229 6.16003 25.3229 6.77571V11.9186V12.1686H25.5729C25.8475 12.1686 26.111 12.2777 26.3052 12.4719C26.4995 12.6662 26.6086 12.9296 26.6086 13.2043C26.6086 13.479 26.4995 13.7424 26.3052 13.9366C26.111 14.1309 25.8475 14.24 25.5729 14.24H20.43C20.1553 14.24 19.8919 14.1309 19.6976 13.9366C19.5034 13.7424 19.3943 13.479 19.3943 13.2043C19.3943 12.9296 19.5034 12.6662 19.6976 12.4719C19.8919 12.2777 20.1553 12.1686 20.43 12.1686H20.68V11.9186V9.34714V9.09714H20.43ZM25.3671 26.6464L12.8925 14.1718L12.4657 13.745V14.3486V20.9186V21.1686H12.7157H14.0014C14.6171 21.1686 15.2076 21.4132 15.6429 21.8485C16.0783 22.2839 16.3229 22.8743 16.3229 23.49V25.8114H1.39429V23.49C1.39429 22.8743 1.63886 22.2839 2.07422 21.8485C2.50957 21.4132 3.10003 21.1686 3.71571 21.1686H5.00143H5.25143V20.9186V9.34714V9.09924L5.00353 9.09715C4.53955 9.09325 4.08739 8.9504 3.70539 8.68703C3.32338 8.42367 3.02907 8.05187 2.86041 7.61961C2.69176 7.18735 2.6565 6.71448 2.7592 6.26199C2.8619 5.80951 3.09784 5.39818 3.43657 5.08108L3.6252 4.9045L3.44249 4.72179L0.354248 1.63355L1.64502 0.352861L12.5389 11.2467L12.5389 11.2468L26.6465 25.3671L25.3671 26.6464Z" fill="#FA0707" stroke="#202020" stroke-width="0.5"/>
</svg>
