<svg width="26" height="26" viewBox="0 0 26 26" fill="none" xmlns="http://www.w3.org/2000/svg">
<path d="M3.9 21.05H4.15V20.8V9.1V8.85H3.9C3.27674 8.85 2.67901 8.60241 2.2383 8.1617C1.79759 7.72099 1.55 7.12326 1.55 6.5C1.55 5.87674 1.79759 5.27901 2.2383 4.8383C2.67901 4.39759 3.27674 4.15 3.9 4.15H4.15V3.9V2.6C4.15 1.97674 4.39759 1.37901 4.8383 0.938299C5.27901 0.497589 5.87674 0.25 6.5 0.25H9.1C9.72326 0.25 10.321 0.497588 10.7617 0.938299C11.2024 1.37901 11.45 1.97674 11.45 2.6V3.9V4.15H11.7H22.1C22.7233 4.15 23.321 4.39759 23.7617 4.8383C24.2024 5.27901 24.45 5.87674 24.45 6.5V11.7V11.95H24.7C24.9785 11.95 25.2456 12.0606 25.4425 12.2575C25.6394 12.4545 25.75 12.7215 25.75 13C25.75 13.2785 25.6394 13.5455 25.4425 13.7425C25.2456 13.9394 24.9785 14.05 24.7 14.05H19.5C19.2215 14.05 18.9544 13.9394 18.7575 13.7425C18.5606 13.5455 18.45 13.2785 18.45 13C18.45 12.7215 18.5606 12.4545 18.7575 12.2575C18.9544 12.0606 19.2215 11.95 19.5 11.95H19.75V11.7V9.1V8.85H19.5H11.7H11.45V9.1V20.8V21.05H11.7H13C13.6233 21.05 14.221 21.2976 14.6617 21.7383C15.1024 22.179 15.35 22.7767 15.35 23.4V25.75H0.25V23.4C0.25 22.7767 0.497589 22.179 0.938299 21.7383C1.37901 21.2976 1.97674 21.05 2.6 21.05H3.9Z" fill="#FFAD34" stroke="#202020" stroke-width="0.5"/>
</svg>
