<svg width="46" height="46" viewBox="0 0 46 46" fill="none" xmlns="http://www.w3.org/2000/svg">
<path d="M0.85 23C0.85 35.2331 10.7669 45.15 23 45.15C35.2331 45.15 45.15 35.2331 45.15 23C45.15 10.7669 35.2331 0.85 23 0.85C10.7669 0.85 0.85 10.7669 0.85 23Z" stroke="#202020" stroke-width="0.3"/>
<path d="M13.9014 10.99C14.3635 10.5824 14.9567 10.3542 15.5729 10.3471H18.1443C18.8263 10.3471 19.4803 10.6181 19.9626 11.1003C20.4448 11.5825 20.7157 12.2366 20.7157 12.9186V14.2043H31.0014C31.6834 14.2043 32.3375 14.4752 32.8197 14.9574C33.3019 15.4397 33.5729 16.0937 33.5729 16.7757V21.9186C33.9138 21.9186 34.2409 22.054 34.482 22.2951C34.7231 22.5363 34.8586 22.8633 34.8586 23.2043C34.8586 23.5453 34.7231 23.8723 34.482 24.1134C34.2409 24.3545 33.9138 24.49 33.5729 24.49H28.43C28.089 24.49 27.762 24.3545 27.5209 24.1134C27.2797 23.8723 27.1443 23.5453 27.1443 23.2043C27.1443 22.8633 27.2797 22.5363 27.5209 22.2951C27.762 22.054 28.089 21.9186 28.43 21.9186V19.3471H22.2586L13.9014 10.99ZM33.3671 37L35 35.3671L20.7157 21.07L9.64571 10L8 11.6329L11.2657 14.8986C10.8905 15.2498 10.6292 15.7054 10.5154 16.2067C10.4016 16.7079 10.4407 17.2317 10.6275 17.7105C10.8143 18.1893 11.1403 18.6011 11.5635 18.8929C11.9866 19.1846 12.4875 19.3428 13.0014 19.3471V30.9186H11.7157C11.0337 30.9186 10.3797 31.1895 9.89744 31.6717C9.4152 32.154 9.14429 32.808 9.14429 33.49V36.0614H24.5729V33.49C24.5729 32.808 24.3019 32.154 23.8197 31.6717C23.3375 31.1895 22.6834 30.9186 22.0014 30.9186H20.7157V24.3486L33.3671 37Z" fill="#FA0707"/>
</svg>
